<svg xmlns="http://www.w3.org/2000/svg" xmlns:xlink="http://www.w3.org/1999/xlink" width="500" zoomAndPan="magnify" viewBox="0 0 375 374.999991" height="500" preserveAspectRatio="xMidYMid meet" version="1.0"><defs><clipPath id="fade71726f"><path d="M 0 159 L 111 159 L 111 270 L 0 270 Z M 0 159 " clip-rule="nonzero"/></clipPath><clipPath id="68723b21d3"><path d="M 25.804688 159.136719 L 110.273438 243.609375 L 84.46875 269.414062 L 0 184.941406 Z M 25.804688 159.136719 " clip-rule="nonzero"/></clipPath><clipPath id="4565f3334b"><path d="M 25.804688 159.136719 L 110.179688 243.515625 L 84.375 269.320312 L 0 184.941406 Z M 25.804688 159.136719 " clip-rule="nonzero"/></clipPath><clipPath id="816f4d54b1"><path d="M 59 59 L 270 59 L 270 270 L 59 270 Z M 59 59 " clip-rule="nonzero"/></clipPath><clipPath id="075e8a28b4"><path d="M 59.703125 243.507812 L 243.667969 59.546875 L 269.472656 85.351562 L 85.511719 269.3125 Z M 59.703125 243.507812 " clip-rule="nonzero"/></clipPath><clipPath id="3059236896"><path d="M 59.703125 243.507812 L 243.59375 59.621094 L 269.398438 85.425781 L 85.511719 269.3125 Z M 59.703125 243.507812 " clip-rule="nonzero"/></clipPath><clipPath id="14153601a5"><path d="M 43.722656 100.695312 L 129.351562 100.695312 L 129.351562 186.324219 L 43.722656 186.324219 Z M 43.722656 100.695312 " clip-rule="nonzero"/></clipPath><clipPath id="b2b2ec7d31"><path d="M 43.722656 143.511719 L 86.535156 100.695312 L 129.351562 143.511719 L 86.535156 186.324219 Z M 43.722656 143.511719 " clip-rule="nonzero"/></clipPath><clipPath id="3908bd911d"><path d="M 264 105 L 375 105 L 375 216 L 264 216 Z M 264 105 " clip-rule="nonzero"/></clipPath><clipPath id="8aef39b872"><path d="M 349.1875 215.863281 L 264.714844 131.390625 L 290.523438 105.585938 L 374.992188 190.058594 Z M 349.1875 215.863281 " clip-rule="nonzero"/></clipPath><clipPath id="a5d8da3df8"><path d="M 349.1875 215.863281 L 264.808594 131.484375 L 290.617188 105.679688 L 374.992188 190.058594 Z M 349.1875 215.863281 " clip-rule="nonzero"/></clipPath><clipPath id="9bdb13425c"><path d="M 245.644531 188.671875 L 331.277344 188.671875 L 331.277344 274.300781 L 245.644531 274.300781 Z M 245.644531 188.671875 " clip-rule="nonzero"/></clipPath><clipPath id="5e2b4a15eb"><path d="M 331.277344 231.488281 L 288.460938 274.300781 L 245.644531 231.488281 L 288.460938 188.671875 Z M 331.277344 231.488281 " clip-rule="nonzero"/></clipPath><clipPath id="441e007b8e"><path d="M 106 104 L 318 104 L 318 316 L 106 316 Z M 106 104 " clip-rule="nonzero"/></clipPath><clipPath id="58b6b7e75c"><path d="M 317.132812 131.839844 L 133.242188 315.734375 L 106.15625 288.648438 L 290.046875 104.753906 Z M 317.132812 131.839844 " clip-rule="nonzero"/></clipPath><clipPath id="a48b2c871e"><path d="M 317.132812 131.839844 L 133.246094 315.730469 L 106.160156 288.640625 L 290.046875 104.753906 Z M 317.132812 131.839844 " clip-rule="nonzero"/></clipPath></defs><g clip-path="url(#fade71726f)"><g clip-path="url(#68723b21d3)"><g clip-path="url(#4565f3334b)"><path fill="#4286f5" d="M 25.804688 159.136719 L 110.175781 243.507812 L 84.367188 269.3125 L 0 184.941406 Z M 25.804688 159.136719 " fill-opacity="1" fill-rule="nonzero"/></g></g></g><g clip-path="url(#816f4d54b1)"><g clip-path="url(#075e8a28b4)"><g clip-path="url(#3059236896)"><path fill="#34a853" d="M 59.703125 243.507812 L 243.566406 59.644531 L 269.371094 85.453125 L 85.511719 269.3125 Z M 59.703125 243.507812 " fill-opacity="1" fill-rule="nonzero"/></g></g></g><g clip-path="url(#14153601a5)"><g clip-path="url(#b2b2ec7d31)"><path fill="#4286f5" d="M 43.722656 186.324219 L 43.722656 100.695312 L 129.351562 100.695312 L 129.351562 186.324219 Z M 43.722656 186.324219 " fill-opacity="1" fill-rule="nonzero"/></g></g><g clip-path="url(#3908bd911d)"><g clip-path="url(#8aef39b872)"><g clip-path="url(#a5d8da3df8)"><path fill="#ea4235" d="M 349.1875 215.863281 L 264.816406 131.492188 L 290.621094 105.6875 L 374.992188 190.058594 Z M 349.1875 215.863281 " fill-opacity="1" fill-rule="nonzero"/></g></g></g><g clip-path="url(#9bdb13425c)"><g clip-path="url(#5e2b4a15eb)"><path fill="#ea4235" d="M 331.277344 188.671875 L 331.277344 274.304688 L 245.644531 274.304688 L 245.644531 188.671875 Z M 331.277344 188.671875 " fill-opacity="1" fill-rule="nonzero"/></g></g><g clip-path="url(#441e007b8e)"><g clip-path="url(#58b6b7e75c)"><g clip-path="url(#a48b2c871e)"><path fill="#fabc05" d="M 317.132812 131.839844 L 133.242188 315.734375 L 106.15625 288.648438 L 290.046875 104.753906 Z M 317.132812 131.839844 " fill-opacity="1" fill-rule="nonzero"/></g></g></g></svg>